name C:\Users\antoi\Documents\MyRepositories\upper-imu-dc\Results\main_tracking\Case_77\kinematics.mot
datacolumns 10
datarows 47
range 5.38000000 5.84000000
endheader 
time	clav_prot	clav_elev	scapula_abduction	scapula_elevation	scapula_upward_rot	scapula_winging	plane_elv	shoulder_elv	axial_rot	
          5.38000000	        -30.23577373	          6.64887706	         -1.42661854	         -3.11658489	         50.71423751	         -6.27878928	         65.40002461	         55.61671137	        -10.14633629	
          5.39000000	        -30.15239540	          6.56446576	         -1.52197864	         -3.14631384	         50.39359438	         -6.20563646	         65.47981670	         55.26567721	        -10.14063511	
          5.40000000	        -30.06507473	          6.47428691	         -1.61394821	         -3.17871410	         50.06626092	         -6.12880770	         65.55512020	         54.91519980	        -10.12954981	
          5.41000000	        -29.97399624	          6.37839638	         -1.70296331	         -3.21371996	         49.73209241	         -6.04831420	         65.62605251	         54.56559730	        -10.11410232	
          5.42000000	        -29.87945691	          6.27696151	         -1.78964052	         -3.25119914	         49.39100348	         -5.96422229	         65.69286518	         54.21727775	        -10.09554091	
          5.43000000	        -29.78185674	          6.17025625	         -1.87475308	         -3.29095624	         49.04297526	         -5.87665047	         65.75591877	         53.87071204	        -10.07533191	
          5.44000000	        -29.68168340	          6.05864691	         -1.95919486	         -3.33274235	         48.68806126	         -5.78576295	         65.81564457	         53.52640101	        -10.05514351	
          5.45000000	        -29.57949117	          5.94256724	         -2.04393331	         -3.37627165	         48.32639023	         -5.69175931	         65.87249621	         53.18484132	        -10.03681841	
          5.46000000	        -29.47587532	          5.82248514	         -2.12995555	         -3.42124324	         47.95816516	         -5.59486104	         65.92689762	         52.84649451	        -10.02233434	
          5.47000000	        -29.37144500	          5.69886638	         -2.21821413	         -3.46736488	         47.58365798	         -5.49529682	         65.97919588	         52.51176327	        -10.01375353	
          5.48000000	        -29.26679757	          5.57214171	         -2.30958005	         -3.51437411	         47.20320037	         -5.39328862	         66.02962828	         52.18097772	        -10.01316451	
          5.49000000	        -29.16249742	          5.44268252	         -2.40480894	         -3.56205348	         46.81717127	         -5.28904072	         66.07830983	         51.85439257	        -10.02261968	
          5.50000000	        -29.05906120	          5.31078775	         -2.50452359	         -3.61023808	         46.42598239	         -5.18273254	         66.12524292	         51.53219434	        -10.04407135	
          5.51000000	        -28.95694992	          5.17668170	         -2.60921222	         -3.65881586	         46.03006334	         -5.07451550	         66.17034567	         51.21451548	        -10.07930854	
          5.52000000	        -28.85656745	          5.04052032	         -2.71923906	         -3.70772225	         45.62984852	         -4.96451350	         66.21349189	         50.90145143	        -10.12989590	
          5.53000000	        -28.75826368	          4.90240290	         -2.83486172	         -3.75693165	         45.22576743	         -4.85282582	         66.25455413	         50.59307614	        -10.19711548	
          5.54000000	        -28.66234015	          4.76238614	         -2.95625010	         -3.80644752	         44.81823923	         -4.73953174	         66.29344239	         50.28945273	        -10.28191023	
          5.55000000	        -28.56905627	          4.62049922	         -3.08350284	         -3.85629230	         44.40767192	         -4.62469600	         66.33013403	         49.99063706	        -10.38482742	
          5.56000000	        -28.47863547	          4.47675935	         -3.21665970	         -3.90649730	         43.99446641	         -4.50837509	         66.36469340	         49.69667270	        -10.50596098	
          5.57000000	        -28.39127094	          4.33118755	         -3.35570869	         -3.95709316	         43.57902646	         -4.39062458	         66.39727988	         49.40757630	        -10.64489507	
          5.58000000	        -28.30713083	          4.18382381	         -3.50058720	         -4.00810134	         43.16177447	         -4.27150721	         66.42814208	         49.12331324	        -10.80065490	
          5.59000000	        -28.22636193	          4.03473983	         -3.65117611	         -4.05952803	         42.74317226	         -4.15110126	         66.45759549	         48.84376505	        -10.97167518	
          5.60000000	        -28.14909081	          3.88404739	         -3.80728669	         -4.11136135	         42.32374369	         -4.02950795	         66.48598263	         48.56869272	        -11.15579836	
          5.61000000	        -28.07542157	          3.73190048	         -3.96864212	         -4.16357278	         41.90409469	         -3.90685655	         66.51361818	         48.29770233	        -11.35031475	
          5.62000000	        -28.00543008	          3.57849042	         -4.13485707	         -4.21612248	         41.48492575	         -3.78330602	         66.54072518	         48.03022059	        -11.55205421	
          5.63000000	        -27.93915615	          3.42403513	         -4.30542116	         -4.26896757	         41.06703296	         -3.65904284	         66.56737177	         47.76548681	        -11.75753540	
          5.64000000	        -27.87659654	          3.26876494	         -4.47969317	         -4.32207103	         40.65129627	         -3.53427566	         66.59341920	         47.50256474	        -11.96317242	
          5.65000000	        -27.81770205	          3.11290886	         -4.65691168	         -4.37540907	         40.23865592	         -3.40922805	         66.61849093	         47.24037370	        -12.16552718	
          5.66000000	        -27.76238053	          2.95668416	         -4.83622327	         -4.42897491	         39.83008046	         -3.28413103	         66.64196813	         46.97773463	        -12.36157815	
          5.67000000	        -27.71050490	          2.80029120	         -5.01672391	         -4.48277825	         39.42653080	         -3.15921613	         66.66301056	         46.71342306	        -12.54895779	
          5.68000000	        -27.66192372	          2.64391382	         -5.19750513	         -4.53684047	         39.02892487	         -3.03470993	         66.68059728	         46.44622058	        -12.72610734	
          5.69000000	        -27.61647107	          2.48772451	         -5.37769721	         -4.59118640	         38.63810593	         -2.91082980	         66.69357918	         46.17495828	        -12.89231617	
          5.70000000	        -27.57397377	          2.33189255	         -5.55650442	         -4.64583401	         38.25481550	         -2.78778077	         66.70073581	         45.89854851	        -13.04764162	
          5.71000000	        -27.53425550	          2.17659327	         -5.73323083	         -4.70078343	         37.87967135	         -2.66575301	         66.70083052	         45.61600388	        -13.19272788	
          5.72000000	        -27.49713846	          2.02201712	         -5.90729719	         -4.75600657	         37.51315085	         -2.54491990	         66.69265991	         45.32644374	        -13.32855666	
          5.73000000	        -27.46244378	          1.86837776	         -6.07825031	         -4.81143804	         37.15558058	         -2.42543714	         66.67509511	         45.02909005	        -13.45616843	
          5.74000000	        -27.42999149	          1.71591923	         -6.24576603	         -4.86696781	         36.80713264	         -2.30744287	         66.64711283	         44.72325644	        -13.57639225	
          5.75000000	        -27.39960025	          1.56492114	         -6.40964627	         -4.92243611	         36.46782714	         -2.19105872	         66.60781355	         44.40833525	        -13.68961511	
          5.76000000	        -27.37108610	          1.41570084	         -6.56980990	         -4.97763153	         36.13753960	         -2.07639109	         66.55642354	         44.08378769	        -13.79561311	
          5.77000000	        -27.34425989	          1.26861100	         -6.72627759	         -5.03229285	         35.81601165	         -1.96353168	         66.49227850	         43.74914081	        -13.89345851	
          5.78000000	        -27.31892293	          1.12403152	         -6.87915072	         -5.08611552	         35.50286343	         -1.85255655	         66.41478933	         43.40399302	        -13.98150870	
          5.79000000	        -27.29486121	          0.98235570	         -7.02858595	         -5.13876250	         35.19760695	         -1.74352340	         66.32339343	         43.04802794	        -14.05747527	
          5.80000000	        -27.27183903	          0.84397167	         -7.17476700	         -5.18987886	         34.89966030	         -1.63646744	         66.21749766	         42.68103382	        -14.11856390	
          5.81000000	        -27.24959306	          0.70924054	         -7.31787565	         -5.23910929	         34.60836299	         -1.53139616	         66.09642098	         42.30292516	        -14.16167122	
          5.82000000	        -27.22782822	          0.57847303	         -7.45806514	         -5.28611716	         34.32299250	         -1.42828403	         65.95934531	         41.91376318	        -14.18362386	
          5.83000000	        -27.20621681	          0.45190694	         -7.59543915	         -5.33060364	         34.04278136	         -1.32706762	         65.80528227	         41.51377233	        -14.18144307	
          5.84000000	        -27.18440164	          0.32968759	         -7.73003875	         -5.37232503	         33.76693449	         -1.22764203	         65.63306134	         41.10335084	        -14.15261032	
